<?xml version="1.0" standalone="no"?>
<!DOCTYPE svg PUBLIC "-//W3C//DTD SVG 20010904//EN"
 "http://www.w3.org/TR/2001/REC-SVG-20010904/DTD/svg10.dtd">
<svg version="1.0" xmlns="http://www.w3.org/2000/svg"
 width="512.000000pt" height="512.000000pt" viewBox="0 0 512.000000 512.000000"
 preserveAspectRatio="xMidYMid meet">

<g transform="translate(0.000000,512.000000) scale(0.100000,-0.100000)"
fill="#000000" stroke="none">
<path d="M340 4939 c-124 -24 -244 -122 -303 -246 l-32 -68 -3 -1630 c-2
-1139 1 -1646 8 -1682 27 -126 118 -242 235 -298 86 -40 176 -46 698 -43 l479
3 24 28 c39 46 27 95 -30 117 -18 6 -211 10 -544 10 -479 0 -520 2 -557 19
-60 27 -103 67 -133 125 -27 50 -27 54 -30 269 l-3 217 2411 0 2411 0 -3 -217
c-3 -202 -5 -221 -25 -259 -35 -65 -69 -100 -125 -128 l-52 -26 -1533 0
c-1669 0 -1594 3 -1609 -54 -3 -14 -3 -38 0 -52 11 -44 56 -54 232 -54 l157 0
-6 -82 c-9 -112 -29 -187 -78 -285 -44 -91 -136 -213 -192 -256 l-36 -27 -200
0 c-188 0 -202 -1 -221 -20 -30 -30 -27 -83 6 -109 27 -21 27 -21 1274 -21
1247 0 1247 0 1274 21 33 26 36 79 6 109 -19 19 -33 20 -226 20 l-207 0 -68
69 c-137 140 -229 353 -229 532 l0 49 783 0 c430 0 815 5 855 10 175 23 312
144 357 315 13 52 15 255 15 1670 0 1332 -3 1619 -14 1661 -42 160 -175 283
-336 314 -34 6 -707 10 -1919 10 -1695 0 -1869 -1 -1889 -16 -13 -9 -27 -27
-32 -40 -9 -22 -15 -24 -80 -24 -65 0 -71 2 -80 24 -19 51 -41 56 -220 55 -91
-1 -185 -5 -210 -10z m4330 -1189 l0 -751 25 -24 c13 -14 31 -25 40 -25 12 0
15 -14 15 -75 0 -67 -2 -75 -19 -75 -11 0 -29 -12 -40 -26 -20 -26 -21 -39
-21 -295 l0 -269 -2110 0 -2110 0 0 1145 0 1145 2110 0 2110 0 0 -750z"/>
<path d="M1871 4144 c-27 -35 -26 -53 4 -98 l25 -38 -25 -30 c-32 -37 -32 -72
0 -103 31 -32 66 -32 104 1 l31 26 31 -26 c84 -71 175 27 104 112 l-24 29 24
23 c50 47 21 130 -44 130 -16 0 -42 -11 -58 -24 l-28 -24 -30 24 c-41 33 -87
32 -114 -2z"/>
<path d="M2970 4150 c-29 -29 -26 -81 5 -110 l24 -23 -24 -29 c-71 -85 20
-183 104 -112 l31 26 31 -26 c38 -33 73 -33 104 -1 32 31 32 66 0 103 l-25 30
25 38 c30 45 31 63 4 98 -27 34 -73 35 -114 2 l-30 -24 -28 24 c-35 29 -80 31
-107 4z"/>
<path d="M2424 3776 c-122 -28 -214 -80 -214 -121 0 -29 23 -64 50 -75 23 -9
37 -7 90 14 140 57 257 59 400 7 97 -36 129 -32 151 20 24 60 -8 92 -136 135
-98 32 -247 41 -341 20z"/>
<path d="M1917 3402 c-16 -9 -46 -46 -69 -81 -76 -120 -249 -434 -255 -462 -4
-21 1 -34 20 -53 26 -26 28 -26 177 -26 l150 0 0 -79 c0 -90 14 -117 67 -127
26 -5 37 -1 57 19 24 24 26 34 26 107 0 77 1 80 23 80 33 0 67 40 67 77 0 34
-38 73 -71 73 -18 0 -19 11 -19 200 0 215 -5 241 -52 274 -29 21 -86 20 -121
-2z m23 -352 l0 -120 -70 0 c-38 0 -70 2 -70 4 0 8 131 236 136 236 2 0 4 -54
4 -120z"/>
<path d="M2488 3406 c-95 -26 -172 -103 -198 -196 -5 -19 -10 -123 -10 -231 0
-235 9 -278 76 -349 64 -68 128 -94 220 -88 112 7 189 62 238 168 19 41 21 63
21 270 0 216 -1 227 -23 272 -27 54 -98 123 -146 143 -50 21 -126 26 -178 11z
m139 -162 c54 -34 58 -53 58 -269 0 -220 -4 -239 -66 -271 -60 -31 -127 -12
-166 45 -22 32 -23 43 -23 222 0 103 4 199 9 212 28 73 121 103 188 61z"/>
<path d="M3264 3401 c-19 -11 -54 -56 -86 -108 -105 -169 -238 -417 -238 -443
0 -15 10 -36 23 -48 22 -21 33 -22 175 -22 l152 0 0 -84 c0 -79 2 -86 26 -105
30 -24 43 -26 77 -10 35 16 47 49 47 129 0 64 2 70 20 70 12 0 32 12 47 26 20
20 24 31 19 57 -7 36 -38 67 -67 67 -18 0 -19 10 -19 195 0 173 -2 200 -19
233 -31 62 -97 79 -157 43z m23 -468 c-3 -2 -36 -3 -74 -1 l-69 3 71 125 70
125 3 -124 c1 -68 1 -126 -1 -128z"/>
<path d="M2336 1499 c-34 -27 -36 -77 -3 -107 22 -21 32 -22 228 -22 202 0
206 0 227 23 29 31 28 72 -3 102 -24 25 -25 25 -223 25 -186 0 -201 -1 -226
-21z"/>
</g>
</svg>
