<?xml version="1.0" standalone="no"?>
<!DOCTYPE svg PUBLIC "-//W3C//DTD SVG 20010904//EN"
 "http://www.w3.org/TR/2001/REC-SVG-20010904/DTD/svg10.dtd">
<svg version="1.0" xmlns="http://www.w3.org/2000/svg"
 width="512.000000pt" height="512.000000pt" viewBox="0 0 512.000000 512.000000"
 preserveAspectRatio="xMidYMid meet">

<g transform="translate(0.000000,512.000000) scale(0.100000,-0.100000)"
fill="#000000" stroke="none">
<path d="M502 5105 c-188 -41 -361 -183 -444 -364 -62 -134 -59 -13 -56 -2214
l3 -2012 27 -73 c38 -105 83 -177 159 -252 77 -76 148 -121 251 -158 l73 -27
1157 -3 c996 -2 1167 0 1230 12 182 38 355 171 436 336 73 149 73 145 70 713
l-3 505 -30 44 c-88 124 -262 124 -350 0 l-30 -44 -5 -491 c-4 -347 -9 -500
-17 -518 -20 -46 -72 -97 -116 -114 -38 -14 -159 -15 -1169 -13 l-1126 3 -43
30 c-23 17 -53 50 -66 74 l-23 44 0 1977 0 1977 23 44 c13 24 43 58 66 74 l43
30 1126 3 c1010 2 1131 1 1169 -13 44 -17 96 -68 116 -114 8 -18 13 -171 17
-518 l5 -491 30 -44 c88 -124 262 -124 350 0 l30 44 3 504 c3 570 2 578 -70
718 -85 164 -255 294 -433 331 -100 21 -2306 21 -2403 0z"/>
<path d="M3990 3615 c-108 -34 -170 -151 -140 -263 12 -42 39 -73 279 -314
l265 -268 -1154 0 c-1096 0 -1157 -1 -1195 -19 -72 -32 -125 -113 -125 -191 0
-78 53 -159 125 -191 38 -18 99 -19 1195 -19 l1155 0 -257 -257 c-141 -142
-263 -272 -272 -289 -81 -164 58 -340 239 -302 49 10 61 21 513 472 255 253
470 473 478 488 21 41 28 108 14 158 -10 41 -55 89 -473 507 -254 255 -475
469 -492 477 -48 22 -106 26 -155 11z"/>
</g>
</svg>
